<svg width="16" height="63" viewBox="0 0 16 63" fill="none" xmlns="http://www.w3.org/2000/svg">
<g clip-path="url(#clip0_3_728)">
<path d="M11.5542 0.242462V5.62875H0.786621V9.50734H11.5542V14.8936H15.4344V9.50734V5.62875V0.242462H11.5542Z" fill="white"/>
<path d="M15.4347 52.8207H8.90973L2.74372 46.6547L0.000488281 49.3979L5.1981 54.5938L0.000488281 59.7931L2.74372 62.5347L8.58248 56.6993H15.4347V52.8207Z" fill="white"/>
<path d="M11.5541 35.6923H5.38975C4.70853 35.6923 4.15588 35.1179 4.15588 34.4083C4.15588 33.7037 4.70853 33.1294 5.38975 33.1294H11.5541V35.6923ZM11.5541 23.761V29.3309L2.59142 23.2183L0.405847 26.4257L5.20609 29.6982H4.83542C2.33095 29.6982 0.300659 31.8087 0.300659 34.4066C0.300659 37.0113 2.33095 39.1217 4.83542 39.1217H11.5541H15.411H15.4344V23.7593H11.5541V23.761Z" fill="white"/>
</g>
<defs>
<clipPath id="clip0_3_728">
<rect width="16" height="63" fill="white"/>
</clipPath>
</defs>
</svg>
